<mxfile host="app.diagrams.net" modified="2021-11-24T03:49:07.497Z" agent="5.0 (Windows NT 10.0; Win64; x64) AppleWebKit/537.36 (KHTML, like Gecko) Chrome/96.0.4664.45 Safari/537.36" etag="YXZMkNWAZ_4I0LbW2C-N" version="15.2.9" type="github">
  <diagram name="Page-1" id="c37626ed-c26b-45fb-9056-f9ebc6bb27b6">
    <mxGraphModel dx="626" dy="388" grid="1" gridSize="10" guides="1" tooltips="1" connect="1" arrows="1" fold="1" page="1" pageScale="1" pageWidth="1100" pageHeight="850" background="none" math="0" shadow="0">
      <root>
        <mxCell id="0" />
        <mxCell id="1" parent="0" />
        <mxCell id="wDkKKj_WRBdSIjTPdhcl-5" value="" style="edgeStyle=orthogonalEdgeStyle;rounded=0;orthogonalLoop=1;jettySize=auto;html=1;" edge="1" parent="1">
          <mxGeometry relative="1" as="geometry">
            <mxPoint x="105" y="80" as="sourcePoint" />
            <mxPoint x="105" y="161" as="targetPoint" />
          </mxGeometry>
        </mxCell>
        <mxCell id="wDkKKj_WRBdSIjTPdhcl-6" value="" style="edgeStyle=orthogonalEdgeStyle;rounded=0;orthogonalLoop=1;jettySize=auto;html=1;" edge="1" parent="1">
          <mxGeometry relative="1" as="geometry">
            <mxPoint x="105" y="80" as="sourcePoint" />
            <mxPoint x="105" y="161" as="targetPoint" />
          </mxGeometry>
        </mxCell>
        <mxCell id="wDkKKj_WRBdSIjTPdhcl-15" style="edgeStyle=orthogonalEdgeStyle;rounded=0;orthogonalLoop=1;jettySize=auto;html=1;" edge="1" parent="1" target="wDkKKj_WRBdSIjTPdhcl-16">
          <mxGeometry relative="1" as="geometry">
            <mxPoint x="470" y="90" as="targetPoint" />
            <mxPoint x="100" y="80" as="sourcePoint" />
          </mxGeometry>
        </mxCell>
        <mxCell id="wDkKKj_WRBdSIjTPdhcl-10" value="nicholas martel" style="text;html=1;strokeColor=none;fillColor=none;align=center;verticalAlign=middle;whiteSpace=wrap;rounded=0;" vertex="1" parent="1">
          <mxGeometry x="85" y="160" width="40" height="20" as="geometry" />
        </mxCell>
        <mxCell id="wDkKKj_WRBdSIjTPdhcl-14" value="&lt;h1&gt;Nicholas M&lt;/h1&gt;&lt;p&gt;fw1-sec350-nicholas&lt;/p&gt;&lt;p&gt;log01-sec350-nicholas&lt;/p&gt;&lt;p&gt;mgmt01-sec350-nicholas&lt;/p&gt;&lt;p&gt;rw01-sec350-nicholas&lt;/p&gt;&lt;p&gt;web01-sec350-nicholas&lt;/p&gt;&lt;p&gt;wks01-sec350-nicholas&lt;/p&gt;" style="text;html=1;strokeColor=none;fillColor=none;spacing=5;spacingTop=-20;whiteSpace=wrap;overflow=hidden;rounded=0;" vertex="1" parent="1">
          <mxGeometry x="10" y="180" width="190" height="220" as="geometry" />
        </mxCell>
        <mxCell id="wDkKKj_WRBdSIjTPdhcl-20" style="edgeStyle=orthogonalEdgeStyle;rounded=0;orthogonalLoop=1;jettySize=auto;html=1;" edge="1" parent="1" source="wDkKKj_WRBdSIjTPdhcl-16">
          <mxGeometry relative="1" as="geometry">
            <mxPoint x="530" y="190" as="targetPoint" />
          </mxGeometry>
        </mxCell>
        <mxCell id="wDkKKj_WRBdSIjTPdhcl-27" style="edgeStyle=orthogonalEdgeStyle;rounded=0;orthogonalLoop=1;jettySize=auto;html=1;" edge="1" parent="1" source="wDkKKj_WRBdSIjTPdhcl-16" target="wDkKKj_WRBdSIjTPdhcl-22">
          <mxGeometry relative="1" as="geometry" />
        </mxCell>
        <mxCell id="wDkKKj_WRBdSIjTPdhcl-28" style="edgeStyle=orthogonalEdgeStyle;rounded=0;orthogonalLoop=1;jettySize=auto;html=1;" edge="1" parent="1" source="wDkKKj_WRBdSIjTPdhcl-16">
          <mxGeometry relative="1" as="geometry">
            <mxPoint x="490" y="200" as="targetPoint" />
          </mxGeometry>
        </mxCell>
        <mxCell id="wDkKKj_WRBdSIjTPdhcl-29" style="edgeStyle=orthogonalEdgeStyle;rounded=0;orthogonalLoop=1;jettySize=auto;html=1;entryX=0.5;entryY=0.5;entryDx=0;entryDy=0;entryPerimeter=0;" edge="1" parent="1" source="wDkKKj_WRBdSIjTPdhcl-16" target="wDkKKj_WRBdSIjTPdhcl-21">
          <mxGeometry relative="1" as="geometry" />
        </mxCell>
        <mxCell id="wDkKKj_WRBdSIjTPdhcl-16" value="" style="image;html=1;image=img/lib/clip_art/networking/Firewall_02_128x128.png" vertex="1" parent="1">
          <mxGeometry x="450" y="30" width="80" height="80" as="geometry" />
        </mxCell>
        <mxCell id="wDkKKj_WRBdSIjTPdhcl-17" value="192.168.4.51" style="text;html=1;align=center;verticalAlign=middle;resizable=0;points=[];autosize=1;strokeColor=none;fillColor=none;" vertex="1" parent="1">
          <mxGeometry x="345" y="50" width="90" height="20" as="geometry" />
        </mxCell>
        <mxCell id="wDkKKj_WRBdSIjTPdhcl-18" value="&lt;ul&gt;&lt;li&gt;ssh&lt;/li&gt;&lt;li&gt;http&lt;/li&gt;&lt;li&gt;https&lt;/li&gt;&lt;/ul&gt;" style="text;html=1;align=center;verticalAlign=middle;resizable=0;points=[];autosize=1;strokeColor=none;fillColor=none;" vertex="1" parent="1">
          <mxGeometry x="360" y="90" width="80" height="70" as="geometry" />
        </mxCell>
        <mxCell id="wDkKKj_WRBdSIjTPdhcl-30" style="edgeStyle=orthogonalEdgeStyle;rounded=0;orthogonalLoop=1;jettySize=auto;html=1;entryX=0;entryY=0.75;entryDx=0;entryDy=0;" edge="1" parent="1" source="wDkKKj_WRBdSIjTPdhcl-21" target="wDkKKj_WRBdSIjTPdhcl-22">
          <mxGeometry relative="1" as="geometry" />
        </mxCell>
        <mxCell id="wDkKKj_WRBdSIjTPdhcl-21" value="port forwarding" style="text;html=1;align=center;verticalAlign=middle;resizable=0;points=[];autosize=1;strokeColor=none;fillColor=none;rotation=90;" vertex="1" parent="1">
          <mxGeometry x="380" y="180" width="100" height="20" as="geometry" />
        </mxCell>
        <mxCell id="wDkKKj_WRBdSIjTPdhcl-22" value="sec350.cyber.local&lt;br&gt;10.0.17.100" style="image;html=1;image=img/lib/clip_art/computers/Server_128x128.png" vertex="1" parent="1">
          <mxGeometry x="420" y="280" width="60" height="50" as="geometry" />
        </mxCell>
        <mxCell id="wDkKKj_WRBdSIjTPdhcl-31" style="edgeStyle=orthogonalEdgeStyle;rounded=0;orthogonalLoop=1;jettySize=auto;html=1;" edge="1" parent="1" source="wDkKKj_WRBdSIjTPdhcl-26">
          <mxGeometry relative="1" as="geometry">
            <mxPoint x="585.5" y="334" as="targetPoint" />
          </mxGeometry>
        </mxCell>
        <mxCell id="wDkKKj_WRBdSIjTPdhcl-41" style="edgeStyle=orthogonalEdgeStyle;rounded=0;orthogonalLoop=1;jettySize=auto;html=1;" edge="1" parent="1" source="wDkKKj_WRBdSIjTPdhcl-26" target="wDkKKj_WRBdSIjTPdhcl-39">
          <mxGeometry relative="1" as="geometry" />
        </mxCell>
        <mxCell id="wDkKKj_WRBdSIjTPdhcl-26" value="SEC350-WAN 10.0.17.23/24" style="strokeWidth=1;html=1;shadow=0;dashed=0;shape=mxgraph.android.action_bar;fillColor=#1A1A1A;strokeColor=#c0c0c0;strokeWidth=2;fontColor=#FFFFFF;" vertex="1" parent="1">
          <mxGeometry x="493" y="150" width="185" height="30" as="geometry" />
        </mxCell>
        <mxCell id="wDkKKj_WRBdSIjTPdhcl-37" style="edgeStyle=orthogonalEdgeStyle;rounded=0;orthogonalLoop=1;jettySize=auto;html=1;" edge="1" parent="1" source="wDkKKj_WRBdSIjTPdhcl-36">
          <mxGeometry relative="1" as="geometry">
            <mxPoint x="340" y="550.879150390625" as="targetPoint" />
          </mxGeometry>
        </mxCell>
        <mxCell id="wDkKKj_WRBdSIjTPdhcl-40" style="edgeStyle=orthogonalEdgeStyle;rounded=0;orthogonalLoop=1;jettySize=auto;html=1;startArrow=none;" edge="1" parent="1" source="wDkKKj_WRBdSIjTPdhcl-42">
          <mxGeometry relative="1" as="geometry">
            <mxPoint x="610" y="590" as="targetPoint" />
          </mxGeometry>
        </mxCell>
        <mxCell id="wDkKKj_WRBdSIjTPdhcl-36" value="fw1-nicholas&lt;br&gt;10.0.17.123(eth0)" style="sketch=0;points=[[0.5,0,0],[1,0.5,0],[0.5,1,0],[0,0.5,0],[0.145,0.145,0],[0.8555,0.145,0],[0.855,0.8555,0],[0.145,0.855,0]];verticalLabelPosition=bottom;html=1;verticalAlign=top;aspect=fixed;align=center;pointerEvents=1;shape=mxgraph.cisco19.rect;prIcon=router_with_firewall;fillColor=#FAFAFA;strokeColor=#005073;" vertex="1" parent="1">
          <mxGeometry x="560" y="340" width="50" height="50" as="geometry" />
        </mxCell>
        <mxCell id="wDkKKj_WRBdSIjTPdhcl-39" value="rw01&lt;br&gt;10.0.17.26" style="verticalLabelPosition=bottom;html=1;verticalAlign=top;align=center;strokeColor=none;fillColor=#00BEF2;shape=mxgraph.azure.computer;pointerEvents=1;" vertex="1" parent="1">
          <mxGeometry x="692" y="380" width="50" height="45" as="geometry" />
        </mxCell>
        <mxCell id="wDkKKj_WRBdSIjTPdhcl-42" value="LAN 172.16.150.0/24" style="strokeWidth=1;html=1;shadow=0;dashed=0;shape=mxgraph.android.action_bar;fillColor=#1A1A1A;strokeColor=#c0c0c0;strokeWidth=2;fontColor=#FFFFFF;" vertex="1" parent="1">
          <mxGeometry x="530" y="580" width="185" height="30" as="geometry" />
        </mxCell>
        <mxCell id="wDkKKj_WRBdSIjTPdhcl-43" value="" style="edgeStyle=orthogonalEdgeStyle;rounded=0;orthogonalLoop=1;jettySize=auto;html=1;endArrow=none;" edge="1" parent="1" source="wDkKKj_WRBdSIjTPdhcl-36" target="wDkKKj_WRBdSIjTPdhcl-42">
          <mxGeometry relative="1" as="geometry">
            <mxPoint x="610" y="590" as="targetPoint" />
            <mxPoint x="585" y="390" as="sourcePoint" />
          </mxGeometry>
        </mxCell>
        <mxCell id="wDkKKj_WRBdSIjTPdhcl-44" value="DMZ 172.16.50.0/29" style="strokeWidth=1;html=1;shadow=0;dashed=0;shape=mxgraph.android.action_bar;fillColor=#1A1A1A;strokeColor=#c0c0c0;strokeWidth=2;fontColor=#FFFFFF;" vertex="1" parent="1">
          <mxGeometry x="265" y="540" width="185" height="30" as="geometry" />
        </mxCell>
        <mxCell id="wDkKKj_WRBdSIjTPdhcl-51" style="edgeStyle=orthogonalEdgeStyle;rounded=0;orthogonalLoop=1;jettySize=auto;html=1;" edge="1" parent="1" source="wDkKKj_WRBdSIjTPdhcl-45" target="wDkKKj_WRBdSIjTPdhcl-44">
          <mxGeometry relative="1" as="geometry" />
        </mxCell>
        <mxCell id="wDkKKj_WRBdSIjTPdhcl-45" value="web01&lt;br&gt;.3" style="image;html=1;image=img/lib/clip_art/computers/Server_Rack_128x128.png" vertex="1" parent="1">
          <mxGeometry x="265" y="590" width="80" height="80" as="geometry" />
        </mxCell>
        <mxCell id="wDkKKj_WRBdSIjTPdhcl-52" style="edgeStyle=orthogonalEdgeStyle;rounded=0;orthogonalLoop=1;jettySize=auto;html=1;" edge="1" parent="1" source="wDkKKj_WRBdSIjTPdhcl-46">
          <mxGeometry relative="1" as="geometry">
            <mxPoint x="350" y="570" as="targetPoint" />
          </mxGeometry>
        </mxCell>
        <mxCell id="wDkKKj_WRBdSIjTPdhcl-46" value="log01&lt;br&gt;.5" style="image;html=1;image=img/lib/clip_art/computers/Server_Rack_128x128.png" vertex="1" parent="1">
          <mxGeometry x="345" y="590" width="80" height="80" as="geometry" />
        </mxCell>
        <mxCell id="wDkKKj_WRBdSIjTPdhcl-47" value="172.16.50.2&lt;br&gt;eth1" style="text;html=1;align=center;verticalAlign=middle;resizable=0;points=[];autosize=1;strokeColor=none;fillColor=none;rotation=90;" vertex="1" parent="1">
          <mxGeometry x="320" y="425" width="80" height="30" as="geometry" />
        </mxCell>
        <mxCell id="wDkKKj_WRBdSIjTPdhcl-48" value="172.16.150.2&lt;br&gt;eth2" style="text;html=1;align=center;verticalAlign=middle;resizable=0;points=[];autosize=1;strokeColor=none;fillColor=none;rotation=90;" vertex="1" parent="1">
          <mxGeometry x="615" y="495" width="90" height="30" as="geometry" />
        </mxCell>
        <mxCell id="wDkKKj_WRBdSIjTPdhcl-49" value="Default Gateway for SEC350-WAN" style="text;html=1;align=center;verticalAlign=middle;resizable=0;points=[];autosize=1;strokeColor=none;fillColor=none;" vertex="1" parent="1">
          <mxGeometry x="598" y="60" width="200" height="20" as="geometry" />
        </mxCell>
        <mxCell id="wDkKKj_WRBdSIjTPdhcl-50" value="10.0.17.2" style="text;html=1;align=center;verticalAlign=middle;resizable=0;points=[];autosize=1;strokeColor=none;fillColor=none;" vertex="1" parent="1">
          <mxGeometry x="525" y="60" width="70" height="20" as="geometry" />
        </mxCell>
        <mxCell id="wDkKKj_WRBdSIjTPdhcl-53" value="Routing and DMZ Architecture" style="strokeWidth=1;html=1;shadow=0;dashed=0;shape=mxgraph.android.action_bar;fillColor=#1A1A1A;strokeColor=#c0c0c0;strokeWidth=2;fontColor=#FFFFFF;" vertex="1" parent="1">
          <mxGeometry x="175" y="10" width="185" height="30" as="geometry" />
        </mxCell>
      </root>
    </mxGraphModel>
  </diagram>
</mxfile>
